<svg class="sc-sh3kwq-0 bKNFnb" viewBox="0 0 24 24" fill="#000" width="32" height="32" version="1.1" xmlns="http://www.w3.org/2000/svg" xmlns:xlink="http://www.w3.org/1999/xlink"><path d="M13 3C13.5523 3 14 3.44772 14 4V6C14 6.55228 13.5523 7 13 7C12.4477 7 12 6.55228 12 6V4C12 3.44772 12.4477 3 13 3ZM13 15C13.5523 15 14 15.4477 14 16V18C14 18.5523 13.5523 19 13 19C12.4477 19 12 18.5523 12 18V16C12 15.4477 12.4477 15 13 15ZM18.6569 6.75734C19.0474 6.36681 19.0474 5.73365 18.6569 5.34313C18.2664 4.9526 17.6332 4.9526 17.2427 5.34313L15.8285 6.75734C15.438 7.14786 15.438 7.78103 15.8285 8.17155C16.219 8.56208 16.8522 8.56208 17.2427 8.17155L18.6569 6.75734ZM7.34319 5.34315C7.73371 4.95263 8.36688 4.95263 8.7574 5.34315L10.1716 6.75737C10.5621 7.14789 10.5621 7.78106 10.1716 8.17158C9.78109 8.56211 9.14792 8.56211 8.7574 8.17158L7.34319 6.75737C6.95266 6.36684 6.95266 5.73368 7.34319 5.34315ZM17.2427 13.8284C16.8522 13.4379 16.219 13.4379 15.8285 13.8284C15.4379 14.219 15.4379 14.8521 15.8285 15.2426L17.2427 16.6569C17.6332 17.0474 18.2664 17.0474 18.6569 16.6569C19.0474 16.2663 19.0474 15.6332 18.6569 15.2426L17.2427 13.8284ZM5 11C5 10.4477 5.44771 10 6 10H8C8.55229 10 9 10.4477 9 11C9 11.5523 8.55229 12 8 12H6C5.44772 12 5 11.5523 5 11ZM18 10C17.4477 10 17 10.4477 17 11C17 11.5523 17.4477 12 18 12H20C20.5523 12 21 11.5523 21 11C21 10.4477 20.5523 10 20 10H18ZM14 11.5L12.5 10L3 19.5L4.5 21L14 11.5Z" fill-rule="evenodd" clip-rule="evenodd"></path></svg>